<svg width="110" height="110" viewBox="0 0 110 110" fill="none" xmlns="http://www.w3.org/2000/svg">
<g clip-path="url(#clip0_2_7370)">
<rect width="110" height="110" fill="black"/>
<path d="M55.2334 76.42V76.4199L55.2217 76.4201C54.5319 76.4291 53.8513 76.2872 53.2476 76.0085C53.2469 76.0082 53.2461 76.0079 53.2453 76.0075L52.5758 75.6906L52.5754 75.6905C47.4066 73.2489 43.1066 69.7057 40.1144 65.4228C37.1222 61.1401 35.545 56.271 35.5436 51.3129C35.5436 51.3128 35.5436 51.3128 35.5436 51.3128V51.0502H35.5437L35.5436 51.0461C35.5374 50.4621 35.7169 49.8872 36.064 49.3801C36.4106 48.8736 36.9118 48.4529 37.5168 48.1608L53.2487 40.7675V40.7676L53.2538 40.7651C53.8547 40.4755 54.5363 40.323 55.2302 40.323C55.9241 40.323 56.6058 40.4755 57.2066 40.7651V40.7652L57.2117 40.7675L72.9412 48.1596C72.9421 48.1601 72.9429 48.1605 72.9438 48.1609C73.5487 48.453 74.0499 48.8737 74.3965 49.3801C74.7436 49.8872 74.9232 50.4621 74.9169 51.0461V51.0502V51.3125C74.9111 56.2743 73.3272 61.1458 70.327 65.429C67.3267 69.7122 63.0178 73.2533 57.8409 75.6902L57.8398 75.6906L57.1703 76.0075C57.1695 76.0079 57.1686 76.0083 57.1677 76.0086C56.5758 76.2816 55.9098 76.4233 55.2334 76.42Z" stroke="#00B37E"/>
<path d="M47.286 38.3475C47.3555 38.3043 47.4072 38.2441 47.4336 38.1752C47.46 38.1063 47.4599 38.0323 47.4333 37.9635C47.4066 37.8947 47.3548 37.8345 47.2851 37.7915C47.2154 37.7485 47.1313 37.7247 47.0446 37.7235L45.3597 37.6705C45.3514 37.67 45.3435 37.6675 45.3368 37.6634C45.3302 37.6592 45.3251 37.6536 45.3223 37.6471L44.74 36.3366C44.7108 36.27 44.6576 36.2124 44.5878 36.1717C44.518 36.131 44.4349 36.1092 44.3497 36.1092C44.2646 36.1092 44.1814 36.131 44.1116 36.1717C44.0417 36.2124 43.9887 36.27 43.9593 36.3366L43.379 37.6517C43.3762 37.6582 43.3711 37.6639 43.3645 37.668C43.3578 37.6722 43.3499 37.6747 43.3416 37.6751L41.6567 37.7282C41.57 37.7294 41.4859 37.7531 41.4162 37.7962C41.3465 37.8392 41.2947 37.8994 41.268 37.9682C41.2414 38.037 41.2413 38.111 41.2677 38.1799C41.2941 38.2487 41.3458 38.309 41.4153 38.3522L42.737 39.218C42.7436 39.2224 42.7485 39.2282 42.7512 39.2349C42.7538 39.2415 42.7541 39.2486 42.752 39.2555L42.2971 40.5986C42.2735 40.667 42.2758 40.7398 42.3036 40.8071C42.3314 40.8744 42.3834 40.9329 42.4526 40.9746C42.5217 41.0165 42.6046 41.0395 42.69 41.0405C42.7754 41.0416 42.8591 41.0208 42.9298 40.9808L44.3263 40.2008C44.3331 40.1969 44.3414 40.1947 44.3497 40.1947C44.358 40.1947 44.3662 40.1969 44.3731 40.2008L45.7697 40.9808C45.8393 41.0222 45.9228 41.0444 46.0084 41.0444C46.0939 41.0444 46.1773 41.0222 46.2471 40.9808C46.3162 40.9395 46.3683 40.8813 46.3961 40.8142C46.4239 40.7472 46.4261 40.6745 46.4024 40.6065L45.9438 39.2585C45.9413 39.2518 45.9415 39.2445 45.9441 39.2379C45.9468 39.2312 45.952 39.2254 45.9587 39.2211L47.286 38.3475Z" fill="#FBA94C"/>
<path d="M68.6274 38.3475C68.697 38.3043 68.7486 38.2441 68.775 38.1752C68.8014 38.1063 68.8012 38.0323 68.7746 37.9635C68.7479 37.8947 68.6962 37.8345 68.6264 37.7915C68.5567 37.7485 68.4726 37.7247 68.3859 37.7235L66.701 37.6705C66.6927 37.67 66.6848 37.6675 66.6782 37.6634C66.6715 37.6592 66.6664 37.6536 66.6636 37.6471L66.0814 36.3366C66.0522 36.27 65.999 36.2124 65.9292 36.1717C65.8594 36.131 65.7762 36.1092 65.6911 36.1092C65.6059 36.1092 65.5227 36.131 65.4529 36.1717C65.3832 36.2124 65.33 36.27 65.3008 36.3366L64.7204 37.6517C64.7175 37.6582 64.7125 37.6639 64.7059 37.668C64.6992 37.6722 64.6913 37.6747 64.6829 37.6751L62.9982 37.7282C62.9114 37.7294 62.8273 37.7531 62.7575 37.7962C62.6878 37.8392 62.636 37.8994 62.6093 37.9682C62.5827 38.037 62.5826 38.111 62.609 38.1799C62.6354 38.2487 62.6871 38.309 62.7566 38.3522L64.0783 39.218C64.0849 39.2224 64.0899 39.2282 64.0925 39.2349C64.0952 39.2415 64.0954 39.2486 64.0933 39.2555L63.6384 40.5986C63.6148 40.667 63.6171 40.7398 63.6449 40.8071C63.6727 40.8744 63.7248 40.9329 63.7939 40.9746C63.863 41.0165 63.946 41.0395 64.0313 41.0405C64.1167 41.0416 64.2004 41.0208 64.2711 40.9808L65.6676 40.2008C65.6746 40.1969 65.6827 40.1947 65.6911 40.1947C65.6995 40.1947 65.7076 40.1969 65.7145 40.2008L67.111 40.9808C67.1808 41.0222 67.2641 41.0444 67.3497 41.0444C67.4352 41.0444 67.5187 41.0222 67.5884 40.9808C67.6575 40.9395 67.7096 40.8813 67.7374 40.8142C67.7652 40.7472 67.7675 40.6745 67.7438 40.6065L67.2851 39.2585C67.2827 39.2518 67.2828 39.2445 67.2855 39.2379C67.2882 39.2312 67.2933 39.2254 67.3001 39.2211L68.6274 38.3475Z" fill="#FBA94C"/>
<path d="M58.8056 34.3757C58.9001 34.3183 58.9702 34.2383 59.0061 34.1469C59.0419 34.0555 59.0417 33.9572 59.0056 33.8658C58.9694 33.7745 58.8991 33.6946 58.8044 33.6375C58.7099 33.5804 58.5956 33.5488 58.4778 33.5472L56.1905 33.4768C56.1793 33.4762 56.1686 33.4729 56.1595 33.4674C56.1505 33.4619 56.1436 33.4544 56.1398 33.4457L55.3493 31.7059C55.3096 31.6174 55.2375 31.541 55.1427 31.487C55.0479 31.433 54.9351 31.404 54.8194 31.404C54.7038 31.404 54.591 31.433 54.4962 31.487C54.4014 31.541 54.3293 31.6174 54.2895 31.7059L53.5017 33.4519C53.4978 33.4606 53.491 33.4681 53.4819 33.4736C53.4729 33.4791 53.4621 33.4824 53.4508 33.483L51.1636 33.5534C51.0458 33.555 50.9316 33.5866 50.8369 33.6437C50.7424 33.7008 50.672 33.7807 50.6358 33.872C50.5998 33.9634 50.5995 34.0617 50.6354 34.1531C50.6713 34.2446 50.7413 34.3246 50.8357 34.3819L52.63 35.5314C52.639 35.5372 52.6457 35.545 52.6493 35.5538C52.6529 35.5626 52.6532 35.5721 52.6503 35.5811L52.0328 37.3644C52.0007 37.4552 52.0039 37.5519 52.0416 37.6412C52.0794 37.7305 52.1501 37.8082 52.2439 37.8636C52.3378 37.9191 52.4503 37.9496 52.5663 37.9511C52.6821 37.9526 52.7958 37.9249 52.8918 37.8719L54.7877 36.8363C54.797 36.831 54.8081 36.8282 54.8194 36.8282C54.8308 36.8282 54.8419 36.831 54.8512 36.8363L56.7471 37.8719C56.8417 37.9267 56.955 37.9562 57.0712 37.9562C57.1873 37.9562 57.3005 37.9267 57.3952 37.8719C57.4891 37.8169 57.5598 37.7396 57.5976 37.6506C57.6353 37.5616 57.6383 37.4652 57.6062 37.3748L56.9835 35.5853C56.9802 35.5763 56.9804 35.5667 56.984 35.5578C56.9876 35.5489 56.9945 35.5411 57.0038 35.5356L58.8056 34.3757Z" fill="#FBA94C"/>
<path d="M55.2335 73.39V73.3899L55.2218 73.39C54.6467 73.3975 54.0795 73.2795 53.5764 73.0478C53.5755 73.0475 53.5748 73.0471 53.574 73.0467L53.003 72.7771L53.0027 72.7769C48.6025 70.7024 44.942 67.692 42.395 64.0533C39.8479 60.4145 38.5053 56.2779 38.5042 52.0656V52.0655V51.8418H38.5042L38.5042 51.8377C38.4989 51.3523 38.6485 50.8743 38.9376 50.4526C39.2263 50.0316 39.6439 49.6817 40.1481 49.4386L53.5773 43.1397L53.5825 43.1373C54.0833 42.8963 54.6516 42.7694 55.2303 42.7694C55.8089 42.7694 56.3773 42.8963 56.8781 43.1373L56.8833 43.1397L70.3125 49.4386C70.8166 49.6817 71.2342 50.0316 71.5229 50.4526C71.812 50.8743 71.9616 51.3523 71.9564 51.8377V51.8418V52.0652C71.9515 56.2806 70.6032 60.4195 68.0493 64.0584C65.4954 67.6974 61.8275 70.7061 57.4202 72.7766L57.4192 72.7771L56.8483 73.0467C56.8476 73.0471 56.8468 73.0474 56.8461 73.0477C56.3526 73.2748 55.7974 73.3927 55.2335 73.39Z" stroke="#FBA94C"/>
<path fill-rule="evenodd" clip-rule="evenodd" d="M52.7972 64.9761C52.7972 64.6381 53.1259 64.3642 53.5314 64.3642H56.4686C56.8741 64.3642 57.2029 64.6381 57.2029 64.9761C57.2029 65.314 56.8741 65.588 56.4686 65.588H53.5314C53.1259 65.588 52.7972 65.314 52.7972 64.9761Z" fill="#FBA94C"/>
<path fill-rule="evenodd" clip-rule="evenodd" d="M54.0773 48.8826C54.3369 48.7042 54.6631 48.6065 55 48.6065C55.3379 48.6065 55.6653 48.7048 55.9254 48.8845C56.8372 49.5033 58.8109 51.0373 59.9028 53.4025C61.0106 55.8022 61.1794 58.9935 58.5763 62.8296C58.446 63.0216 58.2018 63.1404 57.9372 63.1404H52.0628C51.8004 63.1404 51.5579 63.0236 51.4267 62.8342C48.7703 58.9971 48.933 55.8012 50.0531 53.3979C51.1559 51.0322 53.1545 49.4985 54.0773 48.8826ZM54.9999 49.8348L54.9998 49.8349C54.1762 50.3839 52.3941 51.7556 51.422 53.841C50.4935 55.8333 50.2737 58.5385 52.4923 61.9165H57.5032C59.675 58.5397 59.4524 55.8352 58.5322 53.842C57.5712 51.7602 55.817 50.3896 54.9999 49.8348Z" fill="#00B37E"/>
<path fill-rule="evenodd" clip-rule="evenodd" d="M50.5049 55.8938C50.8162 56.1104 50.8578 56.4963 50.5978 56.7556L47.7218 59.6256C47.7219 59.6263 47.7222 59.6269 47.7223 59.6276L48.8507 63.8861L51.604 62.0506C51.9206 61.8395 52.3828 61.8823 52.6361 62.1462C52.8894 62.4101 52.8381 62.7951 52.5214 63.0063L49.7678 64.842C49.5732 64.9715 49.3419 65.058 49.0964 65.0926C48.8509 65.1274 48.5987 65.1095 48.3637 65.0406C48.1287 64.9718 47.9186 64.8543 47.7531 64.6992C47.5877 64.544 47.4723 64.3564 47.4178 64.1538L47.4173 64.1519L46.2902 59.8986C46.2373 59.7166 46.2365 59.5268 46.288 59.3445C46.34 59.1602 46.4439 58.9889 46.5911 58.8447L49.4706 55.9712C49.7306 55.7118 50.1937 55.6772 50.5049 55.8938Z" fill="#00B37E"/>
<path fill-rule="evenodd" clip-rule="evenodd" d="M59.4404 55.8322C59.752 55.6158 60.215 55.6509 60.4747 55.9105L63.4091 58.845C63.5561 58.9891 63.6599 59.1603 63.7118 59.3445C63.7634 59.5268 63.7626 59.7166 63.7097 59.8986L62.5826 64.1519L62.5821 64.1538C62.5276 64.3564 62.4122 64.544 62.2467 64.6992C62.0813 64.8543 61.8712 64.9718 61.6362 65.0406C61.4012 65.1095 61.149 65.1274 60.9035 65.0926C60.6579 65.058 60.4269 64.9717 60.2324 64.8422L57.4785 63.0063C57.1617 62.7951 57.1104 62.4101 57.3638 62.1462C57.617 61.8823 58.0792 61.8395 58.3959 62.0506L61.1491 63.8861L62.2776 59.6275C62.2777 59.6269 62.2779 59.6263 62.278 59.6256L59.3464 56.694C59.0868 56.4344 59.1289 56.0485 59.4404 55.8322Z" fill="#00B37E"/>
<path d="M54.9999 56.1034C55.6082 56.1034 56.1013 55.6925 56.1013 55.1855C56.1013 54.6786 55.6082 54.2676 54.9999 54.2676C54.3917 54.2676 53.8985 54.6786 53.8985 55.1855C53.8985 55.6925 54.3917 56.1034 54.9999 56.1034Z" fill="#FBA94C"/>
<line y1="9.125" x2="110" y2="9.125" stroke="white" stroke-opacity="0.1"/>
<line y1="19.2083" x2="110" y2="19.2083" stroke="white" stroke-opacity="0.1"/>
<line y1="29.2917" x2="110" y2="29.2917" stroke="white" stroke-opacity="0.1"/>
<line y1="39.375" x2="110" y2="39.375" stroke="white" stroke-opacity="0.1"/>
<line y1="49.4583" x2="110" y2="49.4583" stroke="white" stroke-opacity="0.1"/>
<line y1="59.5417" x2="110" y2="59.5417" stroke="white" stroke-opacity="0.1"/>
<line y1="69.625" x2="110" y2="69.625" stroke="white" stroke-opacity="0.1"/>
<line y1="79.7083" x2="110" y2="79.7083" stroke="white" stroke-opacity="0.1"/>
<line y1="89.7917" x2="110" y2="89.7917" stroke="white" stroke-opacity="0.1"/>
<line y1="99.875" x2="110" y2="99.875" stroke="white" stroke-opacity="0.1"/>
<line x1="9.125" y1="110" x2="9.12499" y2="2.00344e-08" stroke="white" stroke-opacity="0.1"/>
<line x1="19.2083" y1="110" x2="19.2083" y2="2.00344e-08" stroke="white" stroke-opacity="0.1"/>
<line x1="29.2917" y1="110" x2="29.2917" y2="2.00344e-08" stroke="white" stroke-opacity="0.1"/>
<line x1="39.375" y1="110" x2="39.375" y2="2.00344e-08" stroke="white" stroke-opacity="0.1"/>
<line x1="49.4583" y1="110" x2="49.4583" y2="2.00344e-08" stroke="white" stroke-opacity="0.1"/>
<line x1="59.5417" y1="110" x2="59.5417" y2="2.00344e-08" stroke="white" stroke-opacity="0.1"/>
<line x1="69.625" y1="110" x2="69.625" y2="2.00344e-08" stroke="white" stroke-opacity="0.1"/>
<line x1="79.7083" y1="110" x2="79.7083" y2="2.00344e-08" stroke="white" stroke-opacity="0.1"/>
<line x1="89.7917" y1="110" x2="89.7917" y2="2.00344e-08" stroke="white" stroke-opacity="0.1"/>
<line x1="99.875" y1="110" x2="99.875" y2="2.00344e-08" stroke="white" stroke-opacity="0.1"/>
<circle cx="55" cy="55.4583" r="32.5" stroke="black" stroke-opacity="0.1"/>
</g>
<defs>
<clipPath id="clip0_2_7370">
<rect width="110" height="110" fill="white"/>
</clipPath>
</defs>
</svg>
